<?xml version="1.0" encoding="utf-8"?>
<!-- Generator: Adobe Illustrator 23.0.1, SVG Export Plug-In . SVG Version: 6.00 Build 0)  -->
<svg version="1.1" id="Слой_1" xmlns="http://www.w3.org/2000/svg" xmlns:xlink="http://www.w3.org/1999/xlink" x="0px" y="0px"
	 viewBox="0 0 7 7" style="enable-background:new 0 0 7 7;" xml:space="preserve">
<style type="text/css">
	.st0{fill:#34302C;}
	.st1{fill:#685935;}
	.st2{fill:#6B5D43;}
	.st3{fill:#FFFFFF;}
	.st4{fill:#916E4A;}
</style>
<rect class="st0" width="7" height="7"/>
<rect class="st1" width="2" height="2"/>
<rect x="5" class="st1" width="2" height="2"/>
<rect x="5" y="5" class="st1" width="2" height="2"/>
<rect y="5" class="st1" width="2" height="2"/>
<rect x="6" y="6" class="st2" width="1" height="1"/>
<rect x="6" class="st2" width="1" height="1"/>
<rect class="st2" width="1" height="1"/>
<rect y="6" class="st2" width="1" height="1"/>
<rect x="1" y="1" class="st2" width="5" height="5"/>
<rect x="2" y="2" class="st0" width="3" height="3"/>
<rect x="3" y="3" class="st3" width="1" height="1"/>
<rect x="4" y="3" class="st4" width="1" height="1"/>
<rect x="2" y="3" class="st4" width="1" height="1"/>
<rect x="3" y="2" class="st4" width="1" height="1"/>
<rect x="3" y="4" class="st4" width="1" height="1"/>
<rect x="1" y="1" class="st0" width="1" height="1"/>
<rect x="5" y="5" class="st0" width="1" height="1"/>
<rect x="5" y="1" class="st0" width="1" height="1"/>
<rect x="1" y="5" class="st0" width="1" height="1"/>
<rect x="3" y="5" class="st1" width="1" height="1"/>
<rect x="5" y="3" class="st1" width="1" height="1"/>
<rect x="3" y="1" class="st1" width="1" height="1"/>
<rect x="1" y="3" class="st1" width="1" height="1"/>
</svg>
