<?xml version="1.0" encoding="utf-8"?>
<!-- Generator: Adobe Illustrator 23.0.1, SVG Export Plug-In . SVG Version: 6.00 Build 0)  -->
<svg version="1.1" id="Слой_1" xmlns="http://www.w3.org/2000/svg" xmlns:xlink="http://www.w3.org/1999/xlink" x="0px" y="0px"
	 viewBox="0 0 7 7" style="enable-background:new 0 0 7 7;" xml:space="preserve">
<style type="text/css">
	.st0{fill:#0C0C0C;}
	.st1{fill:#363618;}
	.st2{fill:#372B10;}
	.st3{fill:#5A573A;}
	.st4{fill:#6B5D41;}
	.st5{fill:#704F2C;}
	.st6{fill:#997342;}
	.st7{fill:#503F1E;}
	.st8{fill:#2F2708;}
	.st9{fill:#46421F;}
	.st10{fill:#5D573B;}
	.st11{fill:#4E4430;}
</style>
<rect class="st0" width="7" height="7"/>
<rect class="st1" width="2" height="2"/>
<rect x="5" class="st1" width="2" height="2"/>
<rect x="5" y="5" class="st2" width="2" height="2"/>
<rect y="5" class="st3" width="2" height="2"/>
<rect x="6" y="6" class="st4" width="1" height="1"/>
<rect x="6" class="st4" width="1" height="1"/>
<rect class="st4" width="1" height="1"/>
<rect y="6" class="st4" width="1" height="1"/>
<rect x="1" y="1" class="st2" width="5" height="5"/>
<rect x="2" y="2" class="st5" width="3" height="3"/>
<rect x="4" y="4" class="st6" width="1" height="1"/>
<rect x="4" y="3" class="st7" width="1" height="1"/>
<rect x="2" y="3" class="st7" width="1" height="1"/>
<rect x="3" y="2" class="st7" width="1" height="1"/>
<rect x="3" y="4" class="st7" width="1" height="1"/>
<rect x="1" y="1" class="st5" width="1" height="1"/>
<rect x="5" y="5" class="st5" width="1" height="1"/>
<rect x="5" y="1" class="st5" width="1" height="1"/>
<rect x="1" y="5" class="st5" width="1" height="1"/>
<rect x="3" y="5" class="st8" width="1" height="1"/>
<rect x="5" y="3" class="st8" width="1" height="1"/>
<rect x="1" y="3" class="st9" width="1" height="1"/>
<rect x="4" y="1" class="st1" width="1" height="1"/>
<rect x="2" y="1" class="st1" width="1" height="1"/>
<rect y="1" class="st10" width="1" height="1"/>
<rect x="1" y="6" class="st8" width="1" height="1"/>
<rect x="5" y="6" class="st8" width="1" height="1"/>
<rect x="1" y="2" class="st11" width="1" height="1"/>
</svg>
