<?xml version="1.0" encoding="utf-8"?>
<!-- Generator: Adobe Illustrator 23.0.1, SVG Export Plug-In . SVG Version: 6.00 Build 0)  -->
<svg version="1.1" id="Слой_1" xmlns="http://www.w3.org/2000/svg" xmlns:xlink="http://www.w3.org/1999/xlink" x="0px" y="0px"
	 viewBox="0 0 13 13" style="enable-background:new 0 0 13 13;" xml:space="preserve">
<style type="text/css">
	.st0{fill:#636370;}
	.st1{fill:#696979;}
	.st2{fill:#3B3C4B;}
</style>
<rect x="12" y="12" class="st0" width="1" height="1"/>
<rect x="11" y="10" class="st0" width="1" height="1"/>
<rect x="12" y="9" class="st0" width="1" height="1"/>
<rect x="10" y="11" class="st0" width="1" height="1"/>
<rect x="9" y="12" class="st0" width="1" height="1"/>
<rect x="6" y="12" class="st0" width="1" height="1"/>
<rect x="7" y="11" class="st0" width="1" height="1"/>
<rect x="8" y="10" class="st0" width="1" height="1"/>
<rect x="9" y="9" class="st0" width="1" height="1"/>
<rect x="10" y="8" class="st0" width="1" height="1"/>
<rect x="11" y="7" class="st0" width="1" height="1"/>
<rect x="12" y="6" class="st0" width="1" height="1"/>
<rect x="3" y="12" class="st0" width="1" height="1"/>
<rect x="4" y="11" class="st0" width="1" height="1"/>
<rect x="5" y="10" class="st0" width="1" height="1"/>
<rect x="6" y="9" class="st0" width="1" height="1"/>
<rect x="7" y="8" class="st0" width="1" height="1"/>
<rect x="8" y="7" class="st0" width="1" height="1"/>
<rect x="9" y="6" class="st0" width="1" height="1"/>
<rect x="10" y="5" class="st0" width="1" height="1"/>
<rect x="11" y="4" class="st0" width="1" height="1"/>
<rect x="12" y="3" class="st0" width="1" height="1"/>
<rect y="12" class="st0" width="1" height="1"/>
<rect x="1" y="11" class="st0" width="1" height="1"/>
<rect x="2" y="10" class="st0" width="1" height="1"/>
<rect x="3" y="9" class="st0" width="1" height="1"/>
<rect x="4" y="8" class="st0" width="1" height="1"/>
<rect x="5" y="7" class="st0" width="1" height="1"/>
<rect x="6" y="6" class="st0" width="1" height="1"/>
<rect x="7" y="5" class="st0" width="1" height="1"/>
<rect x="8" y="4" class="st0" width="1" height="1"/>
<rect x="9" y="3" class="st1" width="1" height="1"/>
<rect x="10" y="2" class="st0" width="1" height="1"/>
<rect x="11" y="1" class="st0" width="1" height="1"/>
<rect x="12" class="st0" width="1" height="1"/>
<rect x="10" y="12" class="st2" width="1" height="1"/>
<rect x="11" y="11" class="st2" width="1" height="1"/>
<rect x="12" y="10" class="st2" width="1" height="1"/>
<rect x="12" y="7" class="st2" width="1" height="1"/>
<rect x="11" y="8" class="st2" width="1" height="1"/>
<rect x="10" y="9" class="st2" width="1" height="1"/>
<rect x="9" y="10" class="st2" width="1" height="1"/>
<rect x="8" y="11" class="st2" width="1" height="1"/>
<rect x="7" y="12" class="st2" width="1" height="1"/>
<rect x="4" y="12" class="st2" width="1" height="1"/>
<rect x="5" y="11" class="st2" width="1" height="1"/>
<rect x="6" y="10" class="st2" width="1" height="1"/>
<rect x="7" y="9" class="st2" width="1" height="1"/>
<rect x="8" y="8" class="st2" width="1" height="1"/>
<rect x="9" y="7" class="st2" width="1" height="1"/>
<rect x="10" y="6" class="st2" width="1" height="1"/>
<rect x="11" y="5" class="st2" width="1" height="1"/>
<rect x="12" y="4" class="st2" width="1" height="1"/>
<rect x="12" y="1" class="st2" width="1" height="1"/>
<rect x="11" y="2" class="st2" width="1" height="1"/>
<rect x="10" y="3" class="st2" width="1" height="1"/>
<rect x="9" y="4" class="st2" width="1" height="1"/>
<rect x="8" y="5" class="st2" width="1" height="1"/>
<rect x="7" y="6" class="st2" width="1" height="1"/>
<rect x="6" y="7" class="st2" width="1" height="1"/>
<rect x="5" y="8" class="st2" width="1" height="1"/>
<rect x="4" y="9" class="st2" width="1" height="1"/>
<rect x="3" y="10" class="st2" width="1" height="1"/>
<rect x="2" y="11" class="st2" width="1" height="1"/>
<rect x="1" y="12" class="st2" width="1" height="1"/>
</svg>
