<?xml version="1.0" encoding="utf-8"?>
<!-- Generator: Adobe Illustrator 23.0.1, SVG Export Plug-In . SVG Version: 6.00 Build 0)  -->
<svg version="1.1" id="Layer_1" xmlns="http://www.w3.org/2000/svg" xmlns:xlink="http://www.w3.org/1999/xlink" x="0px" y="0px"
	 viewBox="0 0 22 15" style="enable-background:new 0 0 22 15;" xml:space="preserve">
<style type="text/css">
	.st0{fill:#4A5A6B;}
	.st1{fill:#526373;}
	.st2{fill:#8494A5;}
	.st3{fill:#ADB5C6;}
	.st4{fill:#7B8494;}
	.st5{fill:#BDCED6;}
	.st6{fill:#EFFFFF;}
	.st7{fill:#97A8B9;}
</style>
<rect x="21" y="2" class="st0" width="1" height="13"/>
<rect x="21" y="1" class="st1" width="1" height="1"/>
<rect x="21" class="st2" width="1" height="1"/>
<rect class="st3" width="21" height="15"/>
<rect x="20" y="1" class="st4" width="1" height="14"/>
<rect x="1" y="1" class="st5" width="19" height="13"/>
<rect x="1" y="1" class="st6" width="1" height="13"/>
<rect x="1" y="1" class="st6" width="19" height="1"/>
<rect x="2" y="13" class="st3" width="18" height="1"/>
<rect x="3" y="14" class="st4" width="17" height="1"/>
<rect x="19" y="2" class="st3" width="1" height="11"/>
<rect x="9" y="4" class="st7" width="3" height="2"/>
<rect x="2" y="14" class="st2" width="1" height="1"/>
<rect x="10" y="3" class="st0" width="1" height="1"/>
<rect x="9" y="4" class="st0" width="1" height="1"/>
<rect x="8" y="5" class="st0" width="1" height="1"/>
<rect x="7" y="6" class="st0" width="1" height="1"/>
<rect x="6" y="7" class="st0" width="1" height="1"/>
<rect x="11" y="4" class="st0" width="1" height="1"/>
<rect x="12" y="5" class="st0" width="1" height="1"/>
<rect x="13" y="6" class="st0" width="1" height="1"/>
<rect x="14" y="7" class="st0" width="1" height="1"/>
<rect x="5" y="8" class="st6" width="11" height="1"/>
<rect x="8" y="6" class="st7" width="5" height="2"/>
<rect x="7" y="7" class="st7" width="7" height="1"/>
<rect x="5" y="10" class="st0" width="1" height="2"/>
<rect x="5" y="10" class="st0" width="11" height="1"/>
<rect x="5" y="12" class="st6" width="11" height="1"/>
<rect x="15" y="11" class="st6" width="1" height="1"/>
<rect x="6" y="11" class="st7" width="9" height="1"/>
</svg>
