<?xml version="1.0" encoding="utf-8"?>
<!-- Generator: Adobe Illustrator 23.0.1, SVG Export Plug-In . SVG Version: 6.00 Build 0)  -->
<svg version="1.1" id="Слой_1" xmlns="http://www.w3.org/2000/svg" xmlns:xlink="http://www.w3.org/1999/xlink" x="0px" y="0px"
	 viewBox="0 0 53 18" style="enable-background:new 0 0 53 18;" xml:space="preserve">
<style type="text/css">
	.st0{fill:#4A5A6B;}
	.st1{fill:#ADB5C6;}
	.st2{fill:#EFFFFF;}
	.st3{fill:#BDCED6;}
	.st4{fill:#7B8494;}
	.st5{fill:#8494A5;}
	.st6{fill:#526373;}
	.st7{fill:#393942;}
</style>
<rect class="st0" width="53" height="18"/>
<rect class="st1" width="52" height="17"/>
<rect x="1" y="1" class="st2" width="50" height="15"/>
<rect x="2" y="2" class="st3" width="48" height="13"/>
<rect x="2" y="15" class="st1" width="49" height="1"/>
<rect x="50" y="2" class="st1" width="1" height="13"/>
<rect x="3" y="16" class="st4" width="49" height="1"/>
<rect x="51" y="3" class="st4" width="1" height="13"/>
<rect x="51" y="2" class="st5" width="1" height="1"/>
<rect x="2" y="16" class="st5" width="1" height="1"/>
<rect x="52" class="st5" width="1" height="1"/>
<rect x="52" y="1" class="st6" width="1" height="1"/>
<rect y="17" class="st5" width="1" height="1"/>
<rect x="1" y="17" class="st6" width="1" height="1"/>
<rect x="17" y="4" class="st7" width="1" height="9"/>
<rect x="18" y="4" class="st7" width="4" height="1"/>
<rect x="18" y="8" class="st7" width="4" height="1"/>
<rect x="22" y="5" class="st7" width="1" height="3"/>
<rect x="24" y="4" class="st7" width="1" height="9"/>
<rect x="27" y="7" class="st7" width="3" height="1"/>
<rect x="30" y="8" class="st7" width="1" height="5"/>
<rect x="27" y="9" class="st7" width="3" height="1"/>
<rect x="26" y="10" class="st7" width="1" height="2"/>
<rect x="27" y="12" class="st7" width="3" height="1"/>
<rect x="32" y="7" class="st7" width="1" height="4"/>
<rect x="33" y="11" class="st7" width="2" height="1"/>
<rect x="33" y="12" class="st7" width="1" height="2"/>
<rect x="35" y="7" class="st7" width="1" height="4"/>
<rect x="31" y="14" class="st7" width="2" height="1"/>
</svg>
