<?xml version="1.0" encoding="utf-8"?>
<!-- Generator: Adobe Illustrator 23.0.1, SVG Export Plug-In . SVG Version: 6.00 Build 0)  -->
<svg version="1.1" id="Слой_1" xmlns="http://www.w3.org/2000/svg" xmlns:xlink="http://www.w3.org/1999/xlink" x="0px" y="0px"
	 viewBox="0 0 23 18" style="enable-background:new 0 0 23 18;" xml:space="preserve">
<style type="text/css">
	.st0{fill:#46505D;}
	.st1{fill:#4E586E;}
	.st2{fill:#ADB4C4;}
	.st3{fill:#EDFFFF;}
	.st4{fill:#BFCDD3;}
	.st5{fill:#8192A5;}
	.st6{fill:#798296;}
	.st7{fill:#576476;}
	.st8{fill:#2F374D;}
</style>
<rect class="st0" width="1" height="18"/>
<rect x="1" class="st1" width="22" height="18"/>
<rect x="1" class="st2" width="21" height="17"/>
<rect x="2" y="1" class="st3" width="19" height="15"/>
<rect x="3" y="2" class="st4" width="18" height="13"/>
<rect x="3" y="15" class="st2" width="19" height="1"/>
<rect x="20" y="2" class="st2" width="1" height="13"/>
<rect x="3" y="16" class="st5" width="1" height="1"/>
<rect x="21" y="2" class="st5" width="1" height="1"/>
<rect x="4" y="16" class="st6" width="18" height="1"/>
<rect x="21" y="3" class="st6" width="1" height="13"/>
<rect x="1" y="17" class="st5" width="1" height="1"/>
<rect x="2" y="17" class="st7" width="1" height="1"/>
<rect x="22" class="st5" width="1" height="1"/>
<rect x="22" y="1" class="st7" width="1" height="1"/>
<rect x="4" y="6" class="st8" width="1" height="5"/>
<rect x="5" y="7" class="st8" width="1" height="2"/>
<rect x="6" y="8" class="st8" width="1" height="2"/>
<rect x="7" y="7" class="st8" width="1" height="2"/>
<rect x="8" y="6" class="st8" width="1" height="5"/>
<rect x="10" y="8" class="st8" width="1" height="3"/>
<rect x="10" y="6" class="st8" width="1" height="1"/>
<rect x="12" y="7" class="st8" width="1" height="1"/>
<rect x="13" y="8" class="st8" width="1" height="1"/>
<rect x="14" y="9" class="st8" width="1" height="1"/>
<rect x="12" y="10" class="st8" width="2" height="1"/>
<rect x="13" y="6" class="st8" width="2" height="1"/>
<rect x="16" y="7" class="st8" width="1" height="3"/>
<rect x="17" y="10" class="st8" width="2" height="1"/>
<rect x="17" y="6" class="st8" width="2" height="1"/>
</svg>
