<?xml version="1.0" encoding="utf-8"?>
<!-- Generator: Adobe Illustrator 23.0.1, SVG Export Plug-In . SVG Version: 6.00 Build 0)  -->
<svg version="1.1" id="Layer_1" xmlns="http://www.w3.org/2000/svg" xmlns:xlink="http://www.w3.org/1999/xlink" x="0px" y="0px"
	 viewBox="0 0 18 18" style="enable-background:new 0 0 18 18;" xml:space="preserve">
<style type="text/css">
	.st0{fill:#13141D;}
	.st1{fill:#7076AB;}
	.st2{fill:#484848;}
	.st3{fill:#ADAFB5;}
	.st4{fill:#1B1B29;}
	.st5{fill:#808080;}
	.st6{fill:#C0C0C0;}
	.st7{fill:#FFFFFF;}
	.st8{opacity:0.6;fill:#3A3C4A;}
</style>
<g>
	<rect y="8" class="st0" width="1" height="2"/>
	<rect x="8" y="17" class="st0" width="2" height="1"/>
	<rect x="7" y="16" class="st0" width="1" height="1"/>
	<rect x="6" y="15" class="st0" width="1" height="1"/>
	<rect x="5" y="14" class="st0" width="1" height="1"/>
	<rect x="4" y="13" class="st0" width="1" height="1"/>
	<rect x="3" y="12" class="st0" width="1" height="1"/>
	<rect x="2" y="11" class="st0" width="1" height="1"/>
	<rect x="1" y="10" class="st0" width="1" height="1"/>
	<rect x="17" y="8" class="st0" width="1" height="2"/>
	<rect x="8" class="st0" width="2" height="1"/>
	<rect x="1" y="7" class="st0" width="1" height="1"/>
	<rect x="2" y="6" class="st0" width="1" height="1"/>
	<rect x="3" y="5" class="st0" width="1" height="1"/>
	<rect x="4" y="4" class="st0" width="1" height="1"/>
	<rect x="5" y="3" class="st0" width="1" height="1"/>
	<rect x="6" y="2" class="st0" width="1" height="1"/>
	<rect x="7" y="1" class="st0" width="1" height="1"/>
	<rect x="10" y="1" class="st0" width="1" height="1"/>
	<rect x="11" y="2" class="st0" width="1" height="1"/>
	<rect x="12" y="3" class="st0" width="1" height="1"/>
	<rect x="13" y="4" class="st0" width="1" height="1"/>
	<rect x="14" y="5" class="st0" width="1" height="1"/>
	<rect x="15" y="6" class="st0" width="1" height="1"/>
	<rect x="16" y="7" class="st0" width="1" height="1"/>
	<rect x="16" y="10" class="st0" width="1" height="1"/>
	<rect x="15" y="11" class="st0" width="1" height="1"/>
	<rect x="14" y="12" class="st0" width="1" height="1"/>
	<rect x="13" y="13" class="st0" width="1" height="1"/>
	<rect x="12" y="14" class="st0" width="1" height="1"/>
	<rect x="11" y="15" class="st0" width="1" height="1"/>
	<rect x="10" y="16" class="st0" width="1" height="1"/>
	<rect x="1" y="8" class="st1" width="1" height="2"/>
	<rect x="8" y="1" class="st1" width="2" height="1"/>
	<rect x="8" y="16" class="st1" width="2" height="1"/>
	<rect x="16" y="8" class="st1" width="1" height="2"/>
	<rect x="10" y="2" class="st1" width="1" height="1"/>
	<rect x="11" y="3" class="st1" width="1" height="1"/>
	<rect x="12" y="4" class="st2" width="1" height="1"/>
	<rect x="13" y="5" class="st2" width="1" height="1"/>
	<rect x="14" y="6" class="st2" width="1" height="1"/>
	<rect x="15" y="7" class="st1" width="1" height="1"/>
	<rect x="15" y="10" class="st1" width="1" height="1"/>
	<rect x="14" y="11" class="st1" width="1" height="1"/>
	<rect x="13" y="12" class="st1" width="1" height="1"/>
	<rect x="12" y="13" class="st1" width="1" height="1"/>
	<rect x="11" y="14" class="st1" width="1" height="1"/>
	<rect x="10" y="15" class="st1" width="1" height="1"/>
	<rect x="7" y="15" class="st1" width="1" height="1"/>
	<rect x="6" y="14" class="st2" width="1" height="1"/>
	<rect x="5" y="13" class="st2" width="1" height="1"/>
	<rect x="4" y="12" class="st2" width="1" height="1"/>
	<rect x="3" y="11" class="st3" width="1" height="1"/>
	<rect x="2" y="10" class="st1" width="1" height="1"/>
	<rect x="2" y="7" class="st1" width="1" height="1"/>
	<rect x="3" y="6" class="st1" width="1" height="1"/>
	<rect x="4" y="5" class="st1" width="1" height="1"/>
	<rect x="5" y="4" class="st1" width="1" height="1"/>
	<rect x="6" y="3" class="st1" width="1" height="1"/>
	<rect x="7" y="2" class="st1" width="1" height="1"/>
	<rect x="8" y="2" class="st4" width="2" height="14"/>
	<rect x="2" y="8" class="st4" width="1" height="2"/>
	<rect x="3" y="7" class="st4" width="1" height="4"/>
	<rect x="4" y="6" class="st4" width="1" height="6"/>
	<rect x="5" y="5" class="st4" width="1" height="8"/>
	<rect x="6" y="4" class="st4" width="1" height="10"/>
	<rect x="7" y="3" class="st4" width="1" height="12"/>
	<rect x="10" y="3" class="st4" width="1" height="12"/>
	<rect x="11" y="4" class="st4" width="1" height="10"/>
	<rect x="12" y="5" class="st4" width="1" height="8"/>
	<rect x="13" y="6" class="st4" width="1" height="6"/>
	<rect x="14" y="7" class="st4" width="1" height="4"/>
	<rect x="15" y="8" class="st4" width="1" height="2"/>
</g>
<rect x="8" y="7" width="2" height="1"/>
<rect x="6" y="8" class="st5" width="1" height="1"/>
<rect x="7" y="7" class="st6" width="1" height="1"/>
<g>
	<rect x="9" y="12" width="3" height="1"/>
	<rect x="12" y="9" class="st5" width="1" height="3"/>
	<rect x="11" y="8" class="st5" width="1" height="1"/>
	<rect x="8" y="8" class="st7" width="3" height="2"/>
	<rect x="9" y="11" class="st6" width="3" height="1"/>
	<rect x="9" y="9" class="st6" width="1" height="2"/>
	<rect x="10" y="10" width="1" height="1"/>
	<rect x="10" y="7" class="st5" width="1" height="1"/>
	<rect x="9" y="6" class="st5" width="1" height="1"/>
	<rect x="6" y="5" class="st5" width="3" height="1"/>
	<rect x="5" y="6" width="1" height="3"/>
	<rect x="6" y="9" width="1" height="1"/>
	<rect x="7" y="10" width="1" height="1"/>
	<rect x="6" y="6" class="st6" width="1" height="2"/>
	<rect x="7" y="7" class="st6" width="1" height="2"/>
	<rect x="8" y="7" class="st7" width="2" height="1"/>
	<rect x="7" y="6" class="st7" width="2" height="1"/>
	<rect x="11" y="6" width="1" height="2"/>
	<rect x="12" y="7" width="2" height="1"/>
	<rect x="14" y="6" width="1" height="1"/>
	<rect x="15" y="5" width="1" height="1"/>
	<rect x="16" y="4" width="1" height="1"/>
	<rect x="8" y="9" width="1" height="3"/>
	<rect x="16" y="3" class="st5" width="1" height="1"/>
	<rect x="14" y="2" class="st5" width="2" height="1"/>
	<rect x="13" y="3" class="st5" width="1" height="1"/>
	<rect x="12" y="4" class="st5" width="1" height="1"/>
	<rect x="11" y="5" class="st5" width="1" height="1"/>
	<rect x="14" y="3" class="st7" width="2" height="1"/>
	<rect x="13" y="4" class="st7" width="2" height="1"/>
	<rect x="12" y="5" class="st7" width="2" height="1"/>
	<rect x="12" y="6" class="st7" width="1" height="1"/>
	<rect x="13" y="6" class="st6" width="1" height="1"/>
	<rect x="14" y="5" class="st6" width="1" height="1"/>
	<rect x="15" y="4" class="st6" width="1" height="1"/>
	<rect x="5" y="11" class="st5" width="3" height="1"/>
	<rect x="4" y="12" class="st5" width="1" height="1"/>
	<rect x="3" y="13" class="st5" width="1" height="1"/>
	<rect x="2" y="14" class="st5" width="1" height="2"/>
	<rect x="3" y="16" class="st5" width="1" height="1"/>
	<rect x="4" y="16" width="1" height="1"/>
	<rect x="5" y="15" width="1" height="1"/>
	<rect x="6" y="14" width="1" height="1"/>
	<rect x="7" y="12" width="1" height="2"/>
	<rect x="5" y="12" class="st7" width="2" height="1"/>
	<rect x="4" y="13" class="st7" width="2" height="1"/>
	<rect x="3" y="14" class="st7" width="2" height="1"/>
	<rect x="3" y="15" class="st7" width="1" height="1"/>
	<rect x="4" y="15" class="st6" width="1" height="1"/>
	<rect x="5" y="14" class="st6" width="1" height="1"/>
	<rect x="6" y="13" class="st6" width="1" height="1"/>
	<rect x="11" y="9" class="st7" width="1" height="2"/>
</g>
<rect x="8" y="8" class="st6" width="1" height="1"/>
<rect x="13" y="2" class="st8" width="1" height="1"/>
<rect x="14" y="1" class="st8" width="2" height="1"/>
<rect x="16" y="2" class="st8" width="1" height="1"/>
<rect x="17" y="3" class="st8" width="1" height="2"/>
<rect x="16" y="5" class="st8" width="1" height="1"/>
<rect x="2" y="13" class="st8" width="1" height="1"/>
<rect x="1" y="14" class="st8" width="1" height="2"/>
<rect x="2" y="16" class="st8" width="1" height="1"/>
<rect x="3" y="17" class="st8" width="2" height="1"/>
<rect x="5" y="16" class="st8" width="1" height="1"/>
<rect x="7" y="9" class="st5" width="1" height="1"/>
<rect x="9" y="8" width="2" height="1"/>
</svg>
