<?xml version="1.0" encoding="utf-8"?>
<!-- Generator: Adobe Illustrator 23.0.1, SVG Export Plug-In . SVG Version: 6.00 Build 0)  -->
<svg version="1.1" id="Слой_1" xmlns="http://www.w3.org/2000/svg" xmlns:xlink="http://www.w3.org/1999/xlink" x="0px" y="0px"
	 viewBox="0 0 23 18" style="enable-background:new 0 0 23 18;" xml:space="preserve">
<style type="text/css">
	.st0{fill:#080810;}
	.st1{fill:#7B8C9C;}
	.st2{fill:#637B84;}
	.st3{fill:#ADBDC6;}
	.st4{fill:#526B73;}
	.st5{fill:#4A5A6B;}
</style>
<rect x="0" class="st0" width="23" height="18"/>
<rect x="3" y="3" class="st1" width="19" height="14"/>
<rect x="2" y="3" class="st1" width="1" height="15"/>
<rect x="2" y="2" class="st2" width="1" height="1"/>
<rect x="3" y="2" class="st1" width="19" height="1"/>
<rect x="3" y="3" class="st3" width="1" height="14"/>
<rect x="4" y="3" class="st3" width="17" height="1"/>
<rect x="21" y="2" class="st4" width="1" height="1"/>
<rect x="20" y="2" class="st2" width="1" height="1"/>
<rect x="2" y="17" class="st4" width="1" height="1"/>
<rect x="2" y="16" class="st2" width="1" height="1"/>
<rect x="8" y="15" class="st3" width="2" height="1"/>
<rect x="10" y="14" class="st3" width="1" height="1"/>
<rect x="11" y="13" class="st3" width="1" height="1"/>
<rect x="12" y="12" class="st3" width="1" height="1"/>
<rect x="13" y="11" class="st3" width="1" height="1"/>
<rect x="13" y="10" class="st0" width="1" height="1"/>
<rect x="12" y="9" class="st0" width="1" height="1"/>
<rect x="11" y="8" class="st0" width="1" height="1"/>
<rect x="10" y="7" class="st0" width="1" height="1"/>
<rect x="8" y="6" class="st0" width="2" height="1"/>
<rect x="8" y="7" class="st0" width="1" height="8"/>
<rect x="15" y="15" class="st3" width="3" height="1"/>
<rect x="17" y="6" class="st3" width="1" height="9"/>
<rect x="15" y="6" class="st0" width="2" height="1"/>
<rect x="15" y="7" class="st0" width="1" height="8"/>
<rect x="16" y="7" class="st5" width="1" height="8"/>
<rect x="12" y="10" class="st5" width="1" height="2"/>
<rect x="11" y="9" class="st5" width="1" height="4"/>
<rect x="10" y="8" class="st5" width="1" height="6"/>
<rect x="9" y="7" class="st5" width="1" height="8"/>
</svg>
