<?xml version="1.0" encoding="utf-8"?>
<!-- Generator: Adobe Illustrator 23.0.1, SVG Export Plug-In . SVG Version: 6.00 Build 0)  -->
<svg version="1.1" id="Слой_1" xmlns="http://www.w3.org/2000/svg" xmlns:xlink="http://www.w3.org/1999/xlink" x="0px" y="0px"
	 viewBox="0 0 6 7" style="enable-background:new 0 0 6 7;" xml:space="preserve">
<style type="text/css">
	.st0{fill:#736C52;}
	.st1{fill:#ECCE7A;}
	.st2{fill:#FFFFFF;}
</style>
<rect x="5" transform="matrix(-1 -1.224647e-16 1.224647e-16 -1 11 1)" class="st0" width="1" height="1"/>
<rect transform="matrix(-1 -1.224647e-16 1.224647e-16 -1 2 1)" class="st0" width="2" height="1"/>
<rect y="1" transform="matrix(-1 -1.224647e-16 1.224647e-16 -1 1 8)" class="st0" width="1" height="6"/>
<rect x="1" y="6" transform="matrix(-1 -1.224647e-16 1.224647e-16 -1 3 13)" class="st0" width="1" height="1"/>
<rect x="5" y="6" transform="matrix(-1 -1.224647e-16 1.224647e-16 -1 11 13)" class="st0" width="1" height="1"/>
<rect x="4" y="4" transform="matrix(-1 -1.224647e-16 1.224647e-16 -1 9 9)" class="st0" width="1" height="1"/>
<rect x="4" y="2" transform="matrix(-1 -1.224647e-16 1.224647e-16 -1 9 5)" class="st0" width="1" height="1"/>
<rect x="3" y="1" transform="matrix(-1 -1.224647e-16 1.224647e-16 -1 7 3)" class="st0" width="1" height="1"/>
<rect x="3" y="5" transform="matrix(-1 -1.224647e-16 1.224647e-16 -1 7 11)" class="st0" width="1" height="1"/>
<rect x="5" y="1" transform="matrix(-1 -1.224647e-16 1.224647e-16 -1 11 7)" class="st1" width="1" height="5"/>
<rect x="4" y="3" transform="matrix(-1 -1.224647e-16 1.224647e-16 -1 9 7)" class="st1" width="1" height="1"/>
<rect x="3" y="2" transform="matrix(-1 -1.224647e-16 1.224647e-16 -1 7 5)" class="st1" width="1" height="1"/>
<rect x="3" y="4" transform="matrix(-1 -1.224647e-16 1.224647e-16 -1 7 9)" class="st1" width="1" height="1"/>
<rect x="1" y="5" transform="matrix(-1 -1.224647e-16 1.224647e-16 -1 4 11)" class="st1" width="2" height="1"/>
<rect x="1" y="1" transform="matrix(-1 -1.224647e-16 1.224647e-16 -1 4 3)" class="st1" width="2" height="1"/>
<rect x="1" y="2" transform="matrix(-1 -1.224647e-16 1.224647e-16 -1 3 7)" class="st1" width="1" height="3"/>
<rect x="2" y="2" transform="matrix(-1 -1.224647e-16 1.224647e-16 -1 5 7)" class="st2" width="1" height="3"/>
<rect x="3" y="3" transform="matrix(-1 -1.224647e-16 1.224647e-16 -1 7 7)" class="st2" width="1" height="1"/>
</svg>
