<?xml version="1.0" encoding="utf-8"?>
<!-- Generator: Adobe Illustrator 23.0.1, SVG Export Plug-In . SVG Version: 6.00 Build 0)  -->
<svg version="1.1" id="Слой_1" xmlns="http://www.w3.org/2000/svg" xmlns:xlink="http://www.w3.org/1999/xlink" x="0px" y="0px"
	 viewBox="0 0 22 11" style="enable-background:new 0 0 22 11;" xml:space="preserve">
<style type="text/css">
	.st0{fill:#ADB5C6;}
	.st1{fill:#4A5A6B;}
	.st2{fill:#526373;}
	.st3{fill:#8494A5;}
	.st4{fill:#7B8494;}
	.st5{fill:#FFFFFF;}
	.st6{fill:#BDCED6;}
	.st7{fill:#105A00;}
	.st8{fill:#D5DEF2;}
	.st9{fill:#2F374D;}
</style>
<g>
	<rect x="0" y="0" class="st0" width="22" height="11"/>
</g>
<rect x="21" y="2" class="st1" width="1" height="9"/>
<rect x="2" y="10" class="st1" width="20" height="1"/>
<rect x="1" y="10" class="st2" width="1" height="1"/>
<rect x="21" y="1" class="st2" width="1" height="1"/>
<rect x="21" y="0" class="st3" width="1" height="1"/>
<rect x="0" y="10" class="st3" width="1" height="1"/>
<rect x="2" y="9" class="st3" width="1" height="1"/>
<rect x="3" y="9" class="st4" width="18" height="1"/>
<rect x="20" y="2" class="st4" width="1" height="7"/>
<rect x="1" y="1" class="st5" width="1" height="8"/>
<rect x="2" y="1" class="st5" width="18" height="1"/>
<rect x="2" y="2" class="st6" width="17" height="6"/>
<rect x="4" y="3" class="st1" width="1" height="4"/>
<rect x="4" y="3" class="st1" width="4" height="1"/>
<rect x="5" y="4" class="st7" width="2" height="2"/>
<rect x="5" y="6" class="st8" width="3" height="1"/>
<rect x="7" y="4" class="st8" width="1" height="2"/>
<rect x="10" y="3" class="st9" width="1" height="5"/>
<rect x="10" y="3" class="st9" width="3" height="1"/>
<rect x="12" y="4" class="st9" width="1" height="2"/>
<rect x="10" y="5" class="st9" width="3" height="1"/>
<rect x="14" y="3" class="st9" width="1" height="5"/>
<rect x="14" y="7" class="st9" width="3" height="1"/>
</svg>
