<?xml version="1.0" encoding="utf-8"?>
<!-- Generator: Adobe Illustrator 23.0.1, SVG Export Plug-In . SVG Version: 6.00 Build 0)  -->
<svg version="1.1" id="Слой_1" xmlns="http://www.w3.org/2000/svg" xmlns:xlink="http://www.w3.org/1999/xlink" x="0px" y="0px"
	 viewBox="0 0 27 9" style="enable-background:new 0 0 27 9;" xml:space="preserve">
<style type="text/css">
	.st0{fill:#DBCB9E;}
	.st1{fill:#836930;}
	.st2{fill:#8D753A;}
	.st3{fill:#F5F5F5;}
	.st4{fill:#AF9861;}
	.st5{fill:#755B22;}
	.st6{fill:#9C824A;}
	.st7{fill:#EEE2BB;}
	.st8{fill:#C5B27E;}
</style>
<rect x="0" class="st0" width="27" height="9"/>
<rect x="1" y="1" class="st1" width="1" height="6"/>
<rect x="1" y="1" class="st1" width="24" height="1"/>
<rect x="1" y="8" class="st2" width="26" height="1"/>
<rect x="26" y="1" class="st2" width="1" height="7"/>
<rect x="25" y="1" class="st3" width="1" height="1"/>
<rect x="1" y="7" class="st3" width="1" height="1"/>
<rect x="24" y="2" class="st3" width="1" height="1"/>
<rect x="3" y="3" class="st3" width="21" height="1"/>
<rect x="3" y="5" class="st4" width="21" height="1"/>
<rect x="3" y="4" class="st5" width="21" height="1"/>
<rect x="24" y="6" class="st6" width="1" height="1"/>
<rect x="25" y="7" class="st5" width="1" height="1"/>
<rect x="25" y="2" class="st4" width="1" height="5"/>
<rect x="3" y="7" class="st4" width="22" height="1"/>
<rect x="2" y="7" class="st7" width="1" height="1"/>
<rect x="2" y="2" class="st8" width="1" height="1"/>
<rect x="2" y="6" class="st3" width="1" height="1"/>
</svg>
