<?xml version="1.0" encoding="utf-8"?>
<!-- Generator: Adobe Illustrator 23.0.1, SVG Export Plug-In . SVG Version: 6.00 Build 0)  -->
<svg version="1.1" id="Слой_1" xmlns="http://www.w3.org/2000/svg" xmlns:xlink="http://www.w3.org/1999/xlink" x="0px" y="0px"
	 viewBox="0 0 27 13" style="enable-background:new 0 0 27 13;" xml:space="preserve">
<style type="text/css">
	.st0{fill:#4A5A6B;}
	.st1{fill:#ADB5C6;}
	.st2{fill:#EFFFFF;}
	.st3{fill:#BDCED6;}
	.st4{fill:#8494A5;}
	.st5{fill:#526373;}
	.st6{fill:#7B8494;}
	.st7{fill:#D5DEF2;}
	.st8{fill:#105A00;}
	.st9{fill:#2F374D;}
</style>
<rect class="st0" width="27" height="13"/>
<rect class="st1" width="26" height="12"/>
<rect x="1" y="1" class="st2" width="24" height="10"/>
<rect x="2" y="2" class="st3" width="22" height="8"/>
<rect x="26" class="st4" width="1" height="1"/>
<rect x="26" y="1" class="st5" width="1" height="1"/>
<rect y="12" class="st4" width="1" height="1"/>
<rect x="1" y="12" class="st5" width="1" height="1"/>
<rect x="2" y="11" class="st4" width="1" height="1"/>
<rect x="3" y="11" class="st6" width="23" height="1"/>
<rect x="25" y="2" class="st6" width="1" height="9"/>
<rect x="4" y="3" class="st0" width="1" height="4"/>
<rect x="5" y="3" class="st0" width="4" height="1"/>
<rect x="8" y="4" class="st7" width="1" height="3"/>
<rect x="5" y="4" class="st8" width="3" height="2"/>
<rect x="5" y="6" class="st7" width="3" height="1"/>
<rect x="24" y="2" class="st1" width="1" height="9"/>
<rect x="2" y="10" class="st1" width="23" height="1"/>
<rect x="11" y="4" class="st1" width="1" height="1"/>
<rect x="12" y="4" class="st0" width="1" height="1"/>
<rect x="11" y="5" class="st4" width="1" height="1"/>
<rect x="11" y="6" class="st9" width="3" height="1"/>
<rect x="11" y="7" class="st9" width="1" height="2"/>
<rect x="12" y="7" class="st9" width="1" height="1"/>
<rect x="13" y="8" class="st9" width="6" height="1"/>
<rect x="19" y="5" class="st9" width="1" height="3"/>
<rect x="13" y="4" class="st9" width="6" height="1"/>
</svg>
