<?xml version="1.0" encoding="utf-8"?>
<!-- Generator: Adobe Illustrator 23.0.1, SVG Export Plug-In . SVG Version: 6.00 Build 0)  -->
<svg version="1.1" id="Слой_1" xmlns="http://www.w3.org/2000/svg" xmlns:xlink="http://www.w3.org/1999/xlink" x="0px" y="0px"
	 viewBox="0 0 28 15" style="enable-background:new 0 0 28 15;" xml:space="preserve">
<style type="text/css">
	.st0{fill:#080810;}
	.st1{fill:#7B8C9C;}
	.st2{fill:#637B84;}
	.st3{fill:#526B73;}
	.st4{fill:#ADBDC6;}
	.st5{fill:#8F9FA8;}
</style>
<rect class="st0" width="28" height="15"/>
<rect x="2" y="2" class="st1" width="25" height="12"/>
<rect x="2" y="13" class="st2" width="1" height="1"/>
<rect x="2" y="14" class="st3" width="1" height="1"/>
<rect x="2" y="2" class="st2" width="1" height="1"/>
<rect x="26" y="2" class="st3" width="1" height="1"/>
<rect x="25" y="2" class="st2" width="1" height="1"/>
<rect x="3" y="3" class="st4" width="23" height="1"/>
<rect x="3" y="4" class="st4" width="1" height="10"/>
<rect x="6" y="5" class="st0" width="1" height="4"/>
<rect x="7" y="5" class="st0" width="4" height="1"/>
<rect x="7" y="8" class="st5" width="4" height="1"/>
<rect x="10" y="6" class="st5" width="1" height="2"/>
<rect x="7" y="6" class="st2" width="3" height="2"/>
<rect x="13" y="7" class="st2" width="1" height="1"/>
<rect x="14" y="7" class="st3" width="1" height="1"/>
<rect x="13" y="8" class="st3" width="1" height="1"/>
<rect x="13" y="9" class="st0" width="3" height="1"/>
<rect x="13" y="10" class="st0" width="1" height="2"/>
<rect x="14" y="10" class="st0" width="1" height="1"/>
<rect x="15" y="11" class="st0" width="6" height="1"/>
<rect x="21" y="8" class="st0" width="1" height="3"/>
<rect x="15" y="7" class="st0" width="6" height="1"/>
</svg>
