<?xml version="1.0" encoding="utf-8"?>
<!-- Generator: Adobe Illustrator 23.0.1, SVG Export Plug-In . SVG Version: 6.00 Build 0)  -->
<svg version="1.1" id="Layer_1" xmlns="http://www.w3.org/2000/svg" xmlns:xlink="http://www.w3.org/1999/xlink" x="0px" y="0px"
	 viewBox="0 0 23 18" style="enable-background:new 0 0 23 18;" xml:space="preserve">
<style type="text/css">
	.st0{fill:#0B0F16;}
	.st1{fill:#19202A;}
	.st2{fill:#46505D;}
	.st3{fill:#798A9E;}
	.st4{fill:#677986;}
	.st5{fill:#576476;}
	.st6{fill:#ADBCC4;}
	.st7{fill:#899AAD;}
</style>
<rect x="0" y="1" class="st0" width="23" height="17"/>
<rect x="0" y="0" class="st1" width="23" height="1"/>
<rect x="0" class="st2" width="1" height="18"/>
<rect x="2" y="3" class="st3" width="1" height="13"/>
<rect x="2" y="16" class="st4" width="1" height="1"/>
<rect x="2" y="17" class="st5" width="1" height="1"/>
<rect x="2" y="2" class="st4" width="1" height="1"/>
<rect x="3" y="2" class="st3" width="17" height="1"/>
<rect x="20" y="2" class="st4" width="1" height="1"/>
<rect x="21" y="2" class="st5" width="1" height="1"/>
<rect x="3" y="3" class="st6" width="19" height="14"/>
<rect x="4" y="4" class="st7" width="18" height="13"/>
<rect x="5" y="5" class="st3" width="17" height="12"/>
<rect x="20" y="4" class="st3" width="2" height="1"/>
<rect x="21" y="3" class="st3" width="1" height="1"/>
<rect x="8" y="6" width="1" height="1"/>
<rect x="9" y="5" width="2" height="1"/>
<rect x="9" y="7" width="1" height="1"/>
<rect x="10" y="8" width="1" height="1"/>
<rect x="8" y="9" width="2" height="1"/>
<rect x="12" y="5" width="1" height="5"/>
<rect x="13" y="7" width="1" height="1"/>
<rect x="13" y="5" width="2" height="1"/>
<rect x="13" y="9" width="2" height="1"/>
<rect x="16" y="5" width="1" height="5"/>
<rect x="17" y="9" width="2" height="1"/>
<rect x="9" y="11" width="1" height="1"/>
<rect x="8" y="12" width="1" height="4"/>
<rect x="10" y="12" width="1" height="4"/>
<rect x="9" y="13" width="1" height="1"/>
<rect x="12" y="11" width="1" height="5"/>
<rect x="13" y="15" width="2" height="1"/>
<rect x="16" y="11" width="1" height="5"/>
<rect x="17" y="15" width="2" height="1"/>
</svg>
