<?xml version="1.0" encoding="utf-8"?>
<!-- Generator: Adobe Illustrator 23.0.1, SVG Export Plug-In . SVG Version: 6.00 Build 0)  -->
<svg version="1.1" id="Слой_1" xmlns="http://www.w3.org/2000/svg" xmlns:xlink="http://www.w3.org/1999/xlink" x="0px" y="0px"
	 viewBox="0 0 8 18" style="enable-background:new 0 0 8 18;" xml:space="preserve">
<style type="text/css">
	.st0{fill:#DACA9C;}
	.st1{fill:#090202;}
	.st2{fill:#8D7138;}
	.st3{fill:#755C22;}
	.st4{fill:#B0995E;}
	.st5{fill:#F2F2F4;}
	.st6{fill:#BEB17D;}
	.st7{fill:#9B8249;}
	.st8{fill:#F4EAC6;}
</style>
<rect class="st0" width="8" height="18"/>
<rect x="7" y="1" class="st1" width="1" height="17"/>
<rect x="1" y="17" class="st1" width="6" height="1"/>
<rect x="1" y="1" class="st2" width="1" height="15"/>
<rect x="2" y="1" class="st2" width="4" height="1"/>
<rect x="3" y="3" class="st3" width="1" height="12"/>
<rect x="6" y="16" class="st3" width="1" height="1"/>
<rect x="4" y="3" class="st4" width="1" height="12"/>
<rect x="6" y="2" class="st4" width="1" height="14"/>
<rect x="2" y="16" class="st4" width="4" height="1"/>
<rect x="2" y="15" class="st5" width="1" height="1"/>
<rect x="1" y="16" class="st5" width="1" height="1"/>
<rect x="5" y="2" class="st5" width="1" height="1"/>
<rect x="6" y="1" class="st5" width="1" height="1"/>
<rect x="2" y="2" class="st6" width="1" height="1"/>
<rect x="5" y="15" class="st7" width="1" height="1"/>
<rect x="2" y="3" class="st8" width="1" height="12"/>
<rect x="5" y="3" class="st8" width="1" height="12"/>
<rect x="3" y="15" class="st8" width="2" height="1"/>
<rect x="3" y="2" class="st8" width="2" height="1"/>
</svg>
