<?xml version="1.0" encoding="utf-8"?>
<!-- Generator: Adobe Illustrator 23.0.1, SVG Export Plug-In . SVG Version: 6.00 Build 0)  -->
<svg version="1.1" id="Слой_1" xmlns="http://www.w3.org/2000/svg" xmlns:xlink="http://www.w3.org/1999/xlink" x="0px" y="0px"
	 viewBox="0 0 22 17" style="enable-background:new 0 0 22 17;" xml:space="preserve">
<style type="text/css">
	.st0{fill:#4A5A6B;}
	.st1{fill:#ADB5C6;}
	.st2{fill:#EFFFFF;}
	.st3{fill:#BDCED6;}
	.st4{fill:#8494A5;}
	.st5{fill:#7B8494;}
	.st6{fill:#526373;}
	.st7{fill:#97A8B9;}
</style>
<rect class="st0" width="22" height="17"/>
<rect class="st1" width="21" height="16"/>
<rect x="1" y="1" class="st2" width="19" height="14"/>
<rect x="2" y="2" class="st3" width="17" height="12"/>
<rect x="2" y="14" class="st1" width="18" height="1"/>
<rect x="19" y="2" class="st1" width="1" height="12"/>
<rect x="20" y="2" class="st4" width="1" height="2"/>
<rect x="2" y="15" class="st4" width="1" height="1"/>
<rect x="3" y="15" class="st5" width="18" height="1"/>
<rect x="20" y="4" class="st5" width="1" height="11"/>
<rect x="21" class="st5" width="1" height="1"/>
<rect x="21" y="1" class="st6" width="1" height="1"/>
<rect y="16" class="st4" width="1" height="1"/>
<rect x="1" y="16" class="st6" width="1" height="1"/>
<rect x="6" y="13" class="st2" width="10" height="1"/>
<rect x="7" y="5" class="st7" width="8" height="8"/>
<rect x="6" y="4" class="st0" width="1" height="9"/>
<rect x="6" y="4" class="st0" width="10" height="1"/>
<rect x="15" y="5" class="st2" width="1" height="8"/>
</svg>
