<?xml version="1.0" encoding="utf-8"?>
<!-- Generator: Adobe Illustrator 23.0.1, SVG Export Plug-In . SVG Version: 6.00 Build 0)  -->
<svg version="1.1" id="Layer_1" xmlns="http://www.w3.org/2000/svg" xmlns:xlink="http://www.w3.org/1999/xlink" x="0px" y="0px"
	 viewBox="0 0 13 11" style="enable-background:new 0 0 13 11;" xml:space="preserve">
<style type="text/css">
	.st0{fill:#00E800;}
	.st1{fill:#4E0F00;}
</style>
<rect x="0" width="1" height="5"/>
<rect x="0" y="6" width="1" height="5"/>
<rect x="4" y="6" width="1" height="5"/>
<rect x="4" width="1" height="5"/>
<rect x="1" y="4" width="3" height="1"/>
<rect x="1" width="3" height="1"/>
<rect x="1" y="6" width="3" height="1"/>
<rect x="1" y="10" width="4" height="1"/>
<rect x="6" width="1" height="11"/>
<rect x="7" y="10" width="2" height="1"/>
<rect x="7" width="2" height="1"/>
<rect x="8" y="1" width="1" height="1"/>
<rect x="8" y="9" width="1" height="1"/>
<rect x="9" y="8" width="1" height="1"/>
<rect x="10" y="7" width="1" height="1"/>
<rect x="11" y="6" width="1" height="1"/>
<rect x="12" y="5" width="1" height="1"/>
<rect x="9" y="2" width="1" height="1"/>
<rect x="10" y="3" width="1" height="1"/>
<rect x="11" y="4" width="1" height="1"/>
<rect x="1" y="1" class="st0" width="3" height="3"/>
<rect x="7" y="3" class="st0" width="3" height="5"/>
<rect x="10" y="4" class="st0" width="1" height="3"/>
<rect x="11" y="5" class="st0" width="1" height="1"/>
<rect x="7" y="1" class="st0" width="1" height="2"/>
<rect x="8" y="2" class="st0" width="1" height="1"/>
<rect x="7" y="8" class="st0" width="1" height="2"/>
<rect x="8" y="8" class="st0" width="1" height="1"/>
<rect x="1" y="7" class="st1" width="3" height="3"/>
</svg>
