<?xml version="1.0" encoding="utf-8"?>
<!-- Generator: Adobe Illustrator 23.0.1, SVG Export Plug-In . SVG Version: 6.00 Build 0)  -->
<svg version="1.1" id="Слой_1" xmlns="http://www.w3.org/2000/svg" xmlns:xlink="http://www.w3.org/1999/xlink" x="0px" y="0px"
	 viewBox="0 0 14 11" style="enable-background:new 0 0 14 11;" xml:space="preserve">
<style type="text/css">
	.st0{fill:#FFFFFF;}
	.st1{fill:#0B0F16;}
	.st2{fill:#DAE7EA;}
	.st3{fill:#4A5A6B;}
	.st4{fill:#19202A;}
</style>
<g>
	<path class="st0" d="M0.5,9.5L0.5,9.5z"/>
	<polygon points="1,1 0,1 0,10 1,10 	"/>
</g>
<g>
	<rect x="1" y="10" class="st1" width="12" height="1"/>
</g>
<g>
	<path class="st0" d="M13.5,9.5L13.5,9.5z"/>
	<polygon points="14,1 13,1 13,10 14,10 	"/>
</g>
<g>
	<rect x="1" class="st1" width="12" height="1"/>
</g>
<g>
	<rect x="1" y="1" class="st2" width="1" height="8"/>
</g>
<g>
	<rect x="2" y="1" class="st2" width="11" height="1"/>
</g>
<rect x="1" y="9" class="st3" width="12" height="1"/>
<rect x="12" y="1" class="st1" width="1" height="9"/>
<rect x="2" y="2" width="10" height="7"/>
<rect x="4" y="4" class="st0" width="1" height="3"/>
<rect x="6" y="4" class="st0" width="1" height="3"/>
<rect x="8" y="4" class="st0" width="1" height="3"/>
<rect x="13" y="1" class="st1" width="1" height="1"/>
<rect y="1" class="st1" width="1" height="1"/>
<rect x="13" y="7" class="st1" width="1" height="3"/>
<rect y="9" class="st1" width="1" height="1"/>
<rect x="11" y="2" class="st3" width="1" height="7"/>
<rect x="12" y="2" width="1" height="5"/>
<rect x="12" y="7" class="st4" width="1" height="2"/>
</svg>
